<?xml version="1.0" standalone="no"?><!DOCTYPE svg PUBLIC "-//W3C//DTD SVG 1.1//EN" "http://www.w3.org/Graphics/SVG/1.1/DTD/svg11.dtd"><svg t="1697044719651" class="icon" viewBox="0 0 1024 1024" version="1.1" xmlns="http://www.w3.org/2000/svg" p-id="1591" xmlns:xlink="http://www.w3.org/1999/xlink" width="200" height="200"><path d="M865.85344 317.17376h-49.69472v-8.448C816.15872 141.01504 679.71072 4.56704 512 4.56704S207.84128 141.01504 207.84128 308.72576v8.448h-49.69472C75.13088 317.17376 7.59808 370.04288 7.59808 435.02592v466.55488c0 64.98304 67.5328 117.85216 150.54848 117.85216h707.69664c83.00544 0 150.54848-52.86912 150.54848-117.85216V435.02592c0.01024-64.98304-67.5328-117.85216-150.53824-117.85216z m-617.05216-8.448c0-145.13152 118.0672-263.19872 263.19872-263.19872s263.19872 118.0672 263.19872 263.19872v8.448H248.80128v-8.448z m726.64064 592.85504c0 42.40384-49.16224 76.89216-109.58848 76.89216H158.14656c-60.42624 0-109.58848-34.48832-109.58848-76.89216V435.02592c0-42.40384 49.16224-76.89216 109.58848-76.89216h707.69664c60.42624 0 109.58848 34.49856 109.58848 76.89216v466.55488z" fill="" p-id="1592"></path><path d="M491.52 514.048h40.96v308.50048h-40.96z" fill="" p-id="1593"></path></svg>